<mxfile host="Electron" modified="2024-06-18T19:34:20.887Z" agent="Mozilla/5.0 (Macintosh; Intel Mac OS X 10_15_7) AppleWebKit/537.36 (KHTML, like Gecko) draw.io/21.1.2 Chrome/106.0.5249.199 Electron/21.4.3 Safari/537.36" etag="fTJ6W0fmuXHIyIGOJEHM" version="21.1.2" type="device">
  <diagram name="Page-1" id="NVHx-oMxnRrTu4YvGBtg">
    <mxGraphModel dx="1140" dy="826" grid="1" gridSize="10" guides="1" tooltips="1" connect="1" arrows="1" fold="1" page="1" pageScale="1" pageWidth="550" pageHeight="350" math="1" shadow="0">
      <root>
        <mxCell id="0" />
        <mxCell id="1" parent="0" />
        <mxCell id="iD8dl0JdOotFnwthOu3K-1" value="" style="endArrow=none;html=1;rounded=0;strokeWidth=2;" edge="1" parent="1">
          <mxGeometry width="50" height="50" relative="1" as="geometry">
            <mxPoint x="170" y="270" as="sourcePoint" />
            <mxPoint x="500" y="270" as="targetPoint" />
          </mxGeometry>
        </mxCell>
        <mxCell id="iD8dl0JdOotFnwthOu3K-2" value="" style="endArrow=none;html=1;rounded=0;strokeWidth=2;" edge="1" parent="1">
          <mxGeometry width="50" height="50" relative="1" as="geometry">
            <mxPoint x="170" y="270" as="sourcePoint" />
            <mxPoint x="170" y="30" as="targetPoint" />
          </mxGeometry>
        </mxCell>
        <mxCell id="iD8dl0JdOotFnwthOu3K-3" value="$$\alpha_{\text{Edges}} (N)$$" style="text;html=1;strokeColor=none;fillColor=none;align=center;verticalAlign=middle;whiteSpace=wrap;rounded=0;fontSize=25;" vertex="1" parent="1">
          <mxGeometry x="60" y="145" width="60" height="30" as="geometry" />
        </mxCell>
        <mxCell id="iD8dl0JdOotFnwthOu3K-4" value="$$N (\text{Subpopulation size})$$" style="text;html=1;strokeColor=none;fillColor=none;align=center;verticalAlign=middle;whiteSpace=wrap;rounded=0;fontSize=25;" vertex="1" parent="1">
          <mxGeometry x="310" y="290" width="60" height="30" as="geometry" />
        </mxCell>
        <mxCell id="iD8dl0JdOotFnwthOu3K-5" value="" style="curved=1;endArrow=none;html=1;rounded=0;endFill=0;strokeWidth=2;" edge="1" parent="1">
          <mxGeometry width="50" height="50" relative="1" as="geometry">
            <mxPoint x="716" y="230" as="sourcePoint" />
            <mxPoint x="1040" y="60" as="targetPoint" />
            <Array as="points">
              <mxPoint x="720" y="70" />
            </Array>
          </mxGeometry>
        </mxCell>
        <mxCell id="iD8dl0JdOotFnwthOu3K-6" value="" style="endArrow=classic;startArrow=classic;html=1;rounded=0;strokeWidth=2;fillColor=#f8cecc;strokeColor=#b85450;" edge="1" parent="1">
          <mxGeometry width="50" height="50" relative="1" as="geometry">
            <mxPoint x="160" y="270" as="sourcePoint" />
            <mxPoint x="160" y="230" as="targetPoint" />
          </mxGeometry>
        </mxCell>
        <mxCell id="iD8dl0JdOotFnwthOu3K-8" value="" style="endArrow=none;html=1;rounded=0;strokeWidth=2;fillColor=#dae8fc;strokeColor=#6c8ebf;" edge="1" parent="1">
          <mxGeometry width="50" height="50" relative="1" as="geometry">
            <mxPoint x="210" y="210" as="sourcePoint" />
            <mxPoint x="300" y="210" as="targetPoint" />
          </mxGeometry>
        </mxCell>
        <mxCell id="iD8dl0JdOotFnwthOu3K-7" value="" style="endArrow=none;html=1;rounded=0;strokeWidth=2;" edge="1" parent="1">
          <mxGeometry width="50" height="50" relative="1" as="geometry">
            <mxPoint x="170" y="230" as="sourcePoint" />
            <mxPoint x="500" y="60" as="targetPoint" />
          </mxGeometry>
        </mxCell>
        <mxCell id="iD8dl0JdOotFnwthOu3K-9" value="" style="endArrow=classic;startArrow=classic;html=1;rounded=0;strokeWidth=2;fillColor=#dae8fc;strokeColor=#6c8ebf;" edge="1" parent="1">
          <mxGeometry width="50" height="50" relative="1" as="geometry">
            <mxPoint x="300" y="209" as="sourcePoint" />
            <mxPoint x="300" y="164" as="targetPoint" />
          </mxGeometry>
        </mxCell>
        <mxCell id="iD8dl0JdOotFnwthOu3K-10" value="" style="endArrow=none;html=1;rounded=0;strokeWidth=2;" edge="1" parent="1">
          <mxGeometry width="50" height="50" relative="1" as="geometry">
            <mxPoint x="715" y="270" as="sourcePoint" />
            <mxPoint x="1045" y="270" as="targetPoint" />
          </mxGeometry>
        </mxCell>
        <mxCell id="iD8dl0JdOotFnwthOu3K-11" value="" style="endArrow=none;html=1;rounded=0;strokeWidth=2;" edge="1" parent="1">
          <mxGeometry width="50" height="50" relative="1" as="geometry">
            <mxPoint x="715" y="270" as="sourcePoint" />
            <mxPoint x="715" y="30" as="targetPoint" />
          </mxGeometry>
        </mxCell>
        <mxCell id="iD8dl0JdOotFnwthOu3K-12" value="$$\alpha_{\text{Edges}} (N)$$" style="text;html=1;strokeColor=none;fillColor=none;align=center;verticalAlign=middle;whiteSpace=wrap;rounded=0;fontSize=25;" vertex="1" parent="1">
          <mxGeometry x="605" y="145" width="60" height="30" as="geometry" />
        </mxCell>
        <mxCell id="iD8dl0JdOotFnwthOu3K-13" value="$$N (\text{Subpopulation size})$$" style="text;html=1;strokeColor=none;fillColor=none;align=center;verticalAlign=middle;whiteSpace=wrap;rounded=0;fontSize=25;" vertex="1" parent="1">
          <mxGeometry x="855" y="290" width="60" height="30" as="geometry" />
        </mxCell>
      </root>
    </mxGraphModel>
  </diagram>
</mxfile>
